<svg width="23.000000" height="20.000000" viewBox="0 0 23 20" fill="none" xmlns="http://www.w3.org/2000/svg" xmlns:xlink="http://www.w3.org/1999/xlink">
	<defs/>
	<path id="Combined Shape" d="M15.6594 4.24414C15.6594 6.58899 13.7976 8.48938 11.5 8.48938C9.20337 8.48938 7.34058 6.58899 7.34058 4.24414C7.34058 1.8999 9.20337 0 11.5 0C13.7976 0 15.6594 1.8999 15.6594 4.24414ZM4.01611 14.876C4.17761 14.9625 4.33765 15.0063 4.49182 15.0062C4.71545 15.0062 4.91467 14.9141 5.05298 14.7467C5.16418 14.6119 5.28333 14.3704 5.21814 13.985L5.03589 12.9031L5.80884 12.1366C6.07764 11.8706 6.17725 11.5474 6.08289 11.2498C5.98828 10.952 5.72131 10.7499 5.35022 10.6951L4.28027 10.537L3.802 9.55164C3.63611 9.20984 3.36548 9.01367 3.05884 9.01367C2.75208 9.01367 2.48108 9.20984 2.3158 9.55164L1.83765 10.5371L0.767944 10.6951C0.396606 10.7499 0.129517 10.9521 0.0349121 11.25C-0.0596924 11.5476 0.0401611 11.8708 0.308716 12.1365L1.08191 12.9032L0.899902 13.9843C0.834351 14.3699 0.953125 14.6116 1.06445 14.7466C1.29773 15.0297 1.70532 15.0879 2.1012 14.876L3.05884 14.3643L4.01611 14.876ZM21.1624 10.5371L22.2323 10.6951C22.6034 10.7499 22.8705 10.9521 22.9651 11.25C23.0597 11.5476 22.9598 11.8708 22.691 12.1367L21.9181 12.9032L22.1001 13.985C22.1656 14.37 22.0469 14.6117 21.9355 14.7466C21.7974 14.9141 21.5981 15.0062 21.3745 15.0062C21.2203 15.0062 21.0603 14.9625 20.8988 14.876L19.9412 14.3643L18.9843 14.876C18.5878 15.0879 18.1807 15.0292 17.947 14.7468C17.8358 14.6119 17.7167 14.3704 17.7819 13.9849L17.9641 12.9031L17.191 12.1365C16.9224 11.8706 16.8228 11.5474 16.9171 11.2498C17.0117 10.952 17.2787 10.7499 17.6498 10.6951L18.7197 10.537L19.198 9.55151C19.3639 9.20984 19.6345 9.01367 19.9412 9.01367C20.2479 9.01367 20.5189 9.20984 20.6844 9.55188L21.1624 10.5371ZM14.2341 16.824L15.5201 15.4849C15.8544 15.1375 15.9784 14.7311 15.8606 14.37C15.7443 14.0142 15.4152 13.7695 14.9581 13.6986L13.1979 13.4257L12.407 11.7135C12.1138 11.0797 11.6752 11.0112 11.5002 11.0112C11.3248 11.0112 10.886 11.0797 10.594 11.7137L9.80261 13.4255L8.04211 13.6986C7.58484 13.7695 7.25549 14.0144 7.1394 14.3705C7.02136 14.7317 7.14563 15.1379 7.47949 15.4845L8.76611 16.8241L8.46191 18.7196C8.37952 19.2296 8.52673 19.5345 8.66455 19.7004C8.94653 20.0397 9.43945 20.0969 9.93066 19.8213L11.5002 18.9406L13.0693 19.8213C13.2805 19.9399 13.4874 20.0001 13.6838 20C13.9434 20 14.1747 19.8937 14.3352 19.7004C14.4733 19.5345 14.6207 19.2297 14.5386 18.7203L14.2341 16.824Z" clip-rule="evenodd" fill="#DE3C3C" fill-opacity="1.000000" fill-rule="evenodd"/>
</svg>
