<svg width="21.000000" height="20.000000" viewBox="0 0 21 20" fill="none" xmlns="http://www.w3.org/2000/svg" xmlns:xlink="http://www.w3.org/1999/xlink">
	<defs/>
	<path id="Combined Shape" d="M6.28735 17.7732L6.28735 8.92041C6.61157 8.75903 6.93628 8.59814 7.37695 8.2749C7.81909 7.95068 8.37695 7.46606 9.04199 6.7384C9.70752 6.01074 10.4792 5.04089 10.9204 4.17944C11.3621 3.31689 11.4714 2.56311 11.5825 1.94373C11.6929 1.32385 11.8027 0.839111 12.0239 0.515503C12.2439 0.192139 12.5752 0.0307617 13.0442 0.00427246C13.5127 -0.0233154 14.1189 0.0849609 14.5879 0.299927C15.0571 0.515503 15.3877 0.839111 15.6086 1.21606C15.8289 1.5929 15.9402 2.02393 15.9949 2.50903C16.0498 2.99365 16.0498 3.53247 15.9949 4.01709C15.9402 4.50269 15.8289 4.93323 15.6636 5.33765C15.4978 5.74207 15.2778 6.1189 15.167 6.33435C15.0571 6.54993 15.0571 6.60352 15.1953 6.65771C15.3328 6.71179 15.6086 6.76538 16.2427 6.79199C16.8774 6.81909 17.8696 6.81909 18.5312 6.87268C19.1936 6.92676 19.5244 7.03455 19.8281 7.22351C20.1309 7.41235 20.4067 7.68152 20.5999 7.97766C20.7932 8.27344 20.9026 8.59814 20.9587 8.92041C21.0137 9.24365 21.0137 9.56689 20.9587 9.86353C20.9026 10.1593 20.7932 10.4293 20.71 10.6173C20.627 10.8063 20.572 10.9141 20.572 11.0488C20.572 11.1836 20.627 11.345 20.6824 11.5063C20.7383 11.6687 20.7932 11.8301 20.7932 11.9919C20.7932 12.1538 20.7383 12.3152 20.6824 12.4767L20.49 13.0154C20.4067 13.2313 20.2961 13.501 20.2412 13.7435C20.1858 13.9851 20.1858 14.201 20.1858 14.4436C20.1858 14.6853 20.1858 14.9553 20.1589 15.1709C20.1309 15.3859 20.0759 15.5477 19.9934 15.7367L19.7168 16.3025C19.6348 16.4639 19.5793 16.5715 19.5244 16.733C19.469 16.8949 19.4141 17.1099 19.386 17.3258C19.3594 17.5414 19.3594 17.7573 19.2761 18.0265C19.1936 18.2955 19.0278 18.6189 18.78 18.915C18.5312 19.2112 18.2004 19.4813 17.8152 19.6698C17.4285 19.8582 16.9866 19.9664 16.2695 19.9934C15.5527 20.0195 14.5605 19.9659 13.6233 19.8578C12.6851 19.751 11.8027 19.5891 10.8931 19.3466C9.98315 19.1044 9.04541 18.7803 8.21826 18.4845L6.28735 17.7732ZM5.62573 8.43579L0 8.43579L0 18.2955L5.62573 18.2955L5.62573 8.43579ZM2.20215 15.204C2.76025 15.204 3.21289 15.6461 3.21289 16.1914C3.21289 16.7367 2.76025 17.179 2.20215 17.179C1.64404 17.179 1.19141 16.7367 1.19141 16.1914C1.19141 15.6461 1.64404 15.204 2.20215 15.204Z" clip-rule="evenodd" fill="#DE3C3C" fill-opacity="1.000000" fill-rule="evenodd"/>
</svg>
