<svg width="17.000000" height="20.000000" viewBox="0 0 17 20" fill="none" xmlns="http://www.w3.org/2000/svg" xmlns:xlink="http://www.w3.org/1999/xlink">
	<defs/>
	<path id="Shape" d="M15.7888 1.10876L15.4207 1C10.9062 -0.333374 6.09375 -0.333374 1.57935 1L1.21118 1.10876C0.492188 1.32129 -0.000244141 1.97314 0 2.71228L0 11.6317C0 13.9553 0.981201 16.1744 2.70898 17.7576C5.97217 20.7474 11.0271 20.7474 14.2903 17.7576C16.0181 16.1746 16.9998 13.9556 17 11.6317L17 2.71228C17.0002 1.97314 16.5078 1.32129 15.7888 1.10876ZM7.29395 12.6091L13.2439 8.4248L13.2429 8.4231C13.6252 8.15454 13.7139 7.63184 13.4412 7.25562C13.1682 6.87939 12.6375 6.79211 12.2554 7.06067L6.89087 10.8333L4.85083 8.82483C4.51733 8.50769 3.9873 8.51221 3.65942 8.83496C3.33154 9.15784 3.3269 9.67981 3.64917 10.0082L6.19897 12.5188C6.24536 12.5568 6.2959 12.5896 6.34961 12.6167C6.38086 12.6404 6.41382 12.662 6.448 12.6812C6.55786 12.7335 6.67798 12.7621 6.80005 12.7648C6.89893 12.7628 6.99683 12.7439 7.08911 12.7087C7.11816 12.6967 7.14648 12.683 7.17407 12.6677C7.21558 12.6515 7.25562 12.6318 7.29395 12.6091Z" clip-rule="evenodd" fill="#DE3C3C" fill-opacity="1.000000" fill-rule="evenodd"/>
</svg>
