<svg width="20.000000" height="20.000000" viewBox="0 0 20 20" fill="none" xmlns="http://www.w3.org/2000/svg" xmlns:xlink="http://www.w3.org/1999/xlink">
	<defs/>
	<path id="Combined Shape" d="M20 7.56445L20 1.04858C20 0.47229 19.5277 0 18.9513 0L9.04443 0C8.46399 0 7.9917 0.47229 7.9917 1.04858L7.9917 7.56445C7.9917 8.1449 8.46399 8.61719 9.04443 8.61719L10.1412 8.61719L10.1412 11.0586C10.1412 11.2188 10.2373 11.3668 10.3854 11.4269C10.4374 11.4469 10.4894 11.4589 10.5415 11.4589C10.6455 11.4589 10.7456 11.4188 10.8217 11.3428L13.5476 8.61719L18.9513 8.61719C19.5277 8.61719 20 8.1449 20 7.56445ZM13.3915 17.1823C13.5276 17.3184 13.6036 17.5026 13.6036 17.6946C13.6036 17.8907 13.5276 18.0748 13.3915 18.2109L12.1426 19.4597C11.7783 19.824 11.262 20 10.6416 20C8.86829 20 6.23853 18.5791 3.82886 16.1697C0.574585 12.9158 -0.870361 9.2655 0.538574 7.85669L1.78748 6.60803C2.07166 6.32385 2.53198 6.32385 2.81616 6.60803L5.48596 9.27759C5.77014 9.56165 5.77014 10.026 5.48596 10.3102L4.59741 11.1987C4.36523 11.4308 4.65747 12.6237 6.01831 13.9803C7.37524 15.3412 8.56812 15.6334 8.80029 15.4012L9.68884 14.5127C9.97314 14.2285 10.4374 14.2285 10.7216 14.5127L13.3915 17.1823Z" clip-rule="evenodd" fill="#414141" fill-opacity="1.000000" fill-rule="evenodd"/>
</svg>
