<svg width="91.000000" height="34.000000" viewBox="0 0 91 34" fill="none" xmlns="http://www.w3.org/2000/svg" xmlns:xlink="http://www.w3.org/1999/xlink">
	<desc>
			Created with Pixso.
	</desc>
	<defs/>
	<path id="hostus" d="M37.9014 5.67923L37.9014 17.6296L39.8894 17.6296L39.8894 12.7512C39.8894 11.4089 40.6946 10.6067 41.8447 10.6067C43.0276 10.6067 43.7014 11.3761 43.7014 12.7185L43.7014 17.6296L45.6895 17.6296L45.6895 12.1292C45.6895 10.1156 44.5557 8.80597 42.6006 8.80597C41.2532 8.80597 40.448 9.50989 39.8894 10.3284L39.8894 5.67923L37.9014 5.67923ZM67.5093 15.2395C67.5093 17.1385 68.5444 17.7769 70.0066 17.7769C70.7461 17.7769 71.3047 17.6132 71.7976 17.3349L71.7976 15.7143C71.4033 15.9107 71.009 16.0089 70.5654 16.0089C69.8916 16.0089 69.4973 15.6979 69.4973 14.9285L69.4973 10.6886L71.8306 10.6886L71.8306 8.98605L69.4973 8.98605L69.4973 6.61234L67.5093 6.61234L67.5093 8.98605L66.4084 8.98605L66.4084 10.6886L67.5093 10.6886L67.5093 15.2395ZM52.2124 17.826C49.5671 17.826 47.6118 15.8125 47.6118 13.3569L47.6118 13.3242C47.6118 10.8523 49.5835 8.80597 52.2454 8.80597C54.907 8.80597 56.8623 10.8195 56.8623 13.2914L56.8623 13.3242C56.8623 15.7798 54.8906 17.826 52.2124 17.826ZM61.8572 17.7933C60.6248 17.7933 59.261 17.3513 58.1768 16.5L59.064 15.1577C60.0005 15.8616 61.019 16.2217 61.9065 16.2217C62.7607 16.2217 63.2537 15.8616 63.2537 15.2886L63.2537 15.2559C63.2537 14.5847 62.3335 14.3555 61.3149 14.0445C60.0332 13.6843 58.6038 13.1605 58.6038 11.5071L58.6038 11.4743C58.6038 9.83731 59.9675 8.83871 61.6929 8.83871C62.7773 8.83871 63.9602 9.21524 64.8804 9.82092L64.0916 11.2288C63.2537 10.7213 62.3665 10.4103 61.6436 10.4103C60.8713 10.4103 60.4277 10.7704 60.4277 11.2779L60.4277 11.3106C60.4277 11.9327 61.3643 12.1946 62.3828 12.522C63.6479 12.9149 65.0774 13.4879 65.0774 15.0431L65.0774 15.0758C65.0774 16.8929 63.6646 17.7933 61.8572 17.7933ZM83.3154 16.5C84.3999 17.3513 85.7637 17.7933 86.9958 17.7933C88.8032 17.7933 90.2163 16.8929 90.2163 15.0758L90.2163 15.0431C90.2163 13.4879 88.7869 12.9149 87.5217 12.522C86.5029 12.1946 85.5664 11.9327 85.5664 11.3106L85.5664 11.2779C85.5664 10.7704 86.01 10.4103 86.7822 10.4103C87.5051 10.4103 88.3926 10.7213 89.2305 11.2288L90.019 9.82092C89.0989 9.21524 87.916 8.83871 86.8315 8.83871C85.1064 8.83871 83.7427 9.83731 83.7427 11.4743L83.7427 11.5071C83.7427 13.1605 85.1721 13.6843 86.4536 14.0445C87.4724 14.3555 88.3926 14.5847 88.3926 15.2559L88.3926 15.2886C88.3926 15.8616 87.8997 16.2217 87.0452 16.2217C86.158 16.2217 85.1392 15.8616 84.2026 15.1577L83.3154 16.5ZM76.8254 17.8097C74.8701 17.8097 73.7363 16.5 73.7363 14.4865L73.7363 8.98605L75.7246 8.98605L75.7246 13.8972C75.7246 15.2395 76.3982 16.0089 77.5811 16.0089C78.7312 16.0089 79.5364 15.2068 79.5364 13.8644L79.5364 8.98605L81.5244 8.98605L81.5244 17.6296L79.5364 17.6296L79.5364 16.2872C78.9778 17.1057 78.1726 17.8097 76.8254 17.8097ZM54.874 13.3569C54.874 14.8466 53.8555 16.1071 52.2454 16.1071C50.7007 16.1071 49.5999 14.8303 49.5999 13.3242L49.5999 13.2914C49.5999 11.7854 50.6187 10.5412 52.2124 10.5412C53.7732 10.5412 54.874 11.8018 54.874 13.3242L54.874 13.3569Z" clip-rule="evenodd" fill="#212121" fill-opacity="1.000000" fill-rule="evenodd"/>
	<path id="pocus" d="M38.1809 21.8733L38.1809 32.8414L38.9861 32.8414L38.9861 28.4214C39.676 29.4691 40.7605 30.4186 42.4365 30.4186C44.4573 30.4186 46.5112 28.7652 46.5112 26.0477L46.5112 26.015C46.5112 23.2975 44.4573 21.6768 42.4365 21.6768C40.7769 21.6768 39.709 22.6427 38.9861 23.7395L38.9861 21.8733L38.1809 21.8733ZM48.45 26.0805C48.45 28.4214 50.2573 30.4186 52.7383 30.4186C55.2358 30.4186 57.0596 28.3887 57.0596 26.0477L57.0596 26.015C57.0596 23.674 55.2522 21.6768 52.7712 21.6768C50.2737 21.6768 48.45 23.7068 48.45 26.0477L48.45 26.0805ZM58.9656 26.0805C58.9656 28.4214 60.8223 30.4186 63.2375 30.4186C64.782 30.4186 65.8008 29.7311 66.655 28.7652L66.0964 28.2741C65.3899 29.0599 64.4697 29.6656 63.2869 29.6656C61.3645 29.6656 59.8364 28.0613 59.8364 26.0477L59.8364 26.015C59.8364 24.0178 61.3152 22.4299 63.2212 22.4299C64.4697 22.4299 65.2913 23.0684 66.0142 23.805L66.5894 23.2156C65.8008 22.3972 64.8149 21.6768 63.2375 21.6768C60.8386 21.6768 58.9656 23.7068 58.9656 26.0477L58.9656 26.0805ZM78.2715 29.1745C79.1587 29.8948 80.4895 30.3859 81.7056 30.3859C83.3157 30.3859 84.5972 29.4364 84.5972 27.9467L84.5972 27.9139C84.5972 26.4406 83.1841 25.9495 81.8369 25.573C80.6375 25.2292 79.5037 24.8854 79.5037 23.9523L79.5037 23.9196C79.5037 23.0847 80.2595 22.4626 81.4097 22.4626C82.2969 22.4626 83.217 22.79 83.9893 23.2975L84.4165 22.6263C83.5786 22.0698 82.4448 21.7096 81.4426 21.7096C79.8159 21.7096 78.6821 22.6754 78.6821 24.0178L78.6821 24.0505C78.6821 25.5403 80.1938 25.9495 81.5576 26.3424C82.7241 26.6698 83.7756 27.03 83.7756 28.0122L83.7756 28.0449C83.7756 29.0108 82.8884 29.6329 81.7546 29.6329C80.6868 29.6329 79.668 29.24 78.748 28.536L78.2715 29.1745ZM72.1101 30.4186C69.9905 30.4186 68.7581 28.978 68.7581 26.9808L68.7581 21.8733L69.5632 21.8733L69.5632 26.8335C69.5632 28.5524 70.5327 29.6819 72.2251 29.6819C73.8682 29.6819 75.1333 28.4378 75.1333 26.7026L75.1333 21.8733L75.9382 21.8733L75.9382 30.2222L75.1333 30.2222L75.1333 28.667C74.5747 29.6492 73.6379 30.4186 72.1101 30.4186ZM52.7712 29.6656C54.7593 29.6656 56.1887 28.0449 56.1887 26.0805L56.1887 26.0477C56.1887 24.0342 54.6772 22.4299 52.7383 22.4299C50.7502 22.4299 49.3208 24.0505 49.3208 26.015L49.3208 26.0477C49.3208 28.0613 50.8325 29.6656 52.7712 29.6656ZM42.3542 29.6492C44.178 29.6492 45.6404 28.3232 45.6404 26.0805L45.6404 26.0477C45.6404 23.8541 44.1123 22.4462 42.3542 22.4462C40.6125 22.4462 38.9368 23.9032 38.9368 26.0314L38.9368 26.0641C38.9368 28.2086 40.6125 29.6492 42.3542 29.6492Z" clip-rule="evenodd" fill="#212121" fill-opacity="1.000000" fill-rule="evenodd"/>
	<path id="Combined Shape" d="M17.6946 6.29529C19.0879 6.29529 20.2222 5.16498 20.2222 3.77551L20.2222 0.87796C18.6387 0.319611 16.9431 0 15.1667 0C8.97559 0 3.6582 3.70261 1.30249 9.00281C4.71606 7.2847 8.55957 6.29605 12.6387 6.29605L17.6946 6.29529ZM0.241943 12.5003C3.81299 10.1773 8.06567 8.8147 12.6387 8.8147L17.6946 8.81357C20.4829 8.81357 22.75 6.55368 22.75 3.77551L22.75 2.03848C23.6558 2.56021 24.4988 3.17484 25.2727 3.86618C25.2234 7.99075 21.8452 11.3322 17.6946 11.3322L12.6387 11.3333C7.87231 11.3333 3.49292 12.9937 0.0334473 15.753C0.0234375 15.5391 0 15.3276 0 15.1111C0 14.2184 0.0925293 13.3503 0.241943 12.5003ZM12.6387 16.3702C8.16577 16.3702 4.15576 18.3124 1.37988 21.3815C0.992188 20.5367 0.684082 19.649 0.455322 18.7291C3.63232 15.7152 7.91772 13.852 12.6387 13.852L17.6946 13.8505C22.3936 13.8505 26.3418 10.6348 27.4714 6.29984C28.113 7.18799 28.6699 8.14111 29.1079 9.15921C27.0796 13.4168 22.739 16.3691 17.6946 16.3691L12.6387 16.3702ZM30.0879 12.4697C27.3413 16.348 22.8193 18.8889 17.6946 18.8889L12.6387 18.8889C8.604 18.8889 5.01978 20.7789 2.70581 23.7135C3.20215 24.4256 3.7561 25.0942 4.3645 25.7104C6.19482 23.1132 9.21899 21.4075 12.6387 21.4075L17.6946 21.4075C22.6157 21.4075 27.0703 19.3917 30.2803 16.1489C30.3037 15.8047 30.3333 15.4617 30.3333 15.1111C30.3333 14.2082 30.2397 13.3291 30.0879 12.4697ZM6.29712 27.3507C7.65381 25.2907 9.98755 23.9258 12.6387 23.9258L17.6946 23.9258C22.0835 23.9258 26.1389 22.5106 29.4568 20.1333C27.3774 26.0066 21.7737 30.2222 15.1667 30.2222C11.8516 30.2222 8.79297 29.1497 6.29712 27.3507Z" clip-rule="evenodd" fill="#C00000" fill-opacity="1.000000" fill-rule="evenodd"/>
</svg>
