<svg width="31.000000" height="31.000000" viewBox="0 0 31 31" fill="none" xmlns="http://www.w3.org/2000/svg" xmlns:xlink="http://www.w3.org/1999/xlink">
	<desc>
			Created with Pixso.
	</desc>
	<defs/>
	<path id="Combined Shape" d="M17.6946 6.29529C19.0879 6.29529 20.2222 5.16498 20.2222 3.77551L20.2222 0.87796C18.6387 0.319611 16.9431 0 15.1667 0C8.97559 0 3.6582 3.70261 1.30249 9.00281C4.71606 7.2847 8.55957 6.29605 12.6387 6.29605L17.6946 6.29529ZM0.241943 12.5003C3.81299 10.1773 8.06567 8.8147 12.6387 8.8147L17.6946 8.81357C20.4829 8.81357 22.75 6.55368 22.75 3.77551L22.75 2.03848C23.6558 2.56021 24.4988 3.17484 25.2727 3.86618C25.2234 7.99075 21.8452 11.3322 17.6946 11.3322L12.6387 11.3333C7.87231 11.3333 3.49292 12.9937 0.0334473 15.753C0.0234375 15.5391 0 15.3276 0 15.1111C0 14.2184 0.0925293 13.3503 0.241943 12.5003ZM12.6387 16.3702C8.16577 16.3702 4.15576 18.3124 1.37988 21.3815C0.992188 20.5367 0.684082 19.649 0.455322 18.7291C3.63232 15.7152 7.91772 13.852 12.6387 13.852L17.6946 13.8505C22.3936 13.8505 26.3418 10.6348 27.4714 6.29984C28.113 7.18799 28.6699 8.14111 29.1079 9.15921C27.0796 13.4168 22.739 16.3691 17.6946 16.3691L12.6387 16.3702ZM30.0879 12.4697C27.3413 16.348 22.8193 18.8889 17.6946 18.8889L12.6387 18.8889C8.604 18.8889 5.01978 20.7789 2.70581 23.7135C3.20215 24.4256 3.7561 25.0942 4.3645 25.7104C6.19482 23.1132 9.21899 21.4075 12.6387 21.4075L17.6946 21.4075C22.6157 21.4075 27.0703 19.3917 30.2803 16.1489C30.3037 15.8047 30.3333 15.4617 30.3333 15.1111C30.3333 14.2082 30.2397 13.3291 30.0879 12.4697ZM6.29712 27.3507C7.65381 25.2907 9.98755 23.9258 12.6387 23.9258L17.6946 23.9258C22.0835 23.9258 26.1389 22.5106 29.4568 20.1333C27.3774 26.0066 21.7737 30.2222 15.1667 30.2222C11.8516 30.2222 8.79297 29.1497 6.29712 27.3507Z" clip-rule="evenodd" fill="#C00000" fill-opacity="1.000000" fill-rule="evenodd"/>
</svg>
